<?xml version='1.0' encoding='ascii'?>
<svg xmlns="http://www.w3.org/2000/svg" version="1.1" width="1920" height="1080">
    <g id="ViewLayer_LineSet" xmlns:inkscape="http://www.inkscape.org/namespaces/inkscape" inkscape:groupmode="lineset" inkscape:label="ViewLayer_LineSet">
        <g xmlns:inkscape="http://www.inkscape.org/namespaces/inkscape" inkscape:groupmode="layer" id="strokes" inkscape:label="strokes">
            <path fill="none" stroke-width="3.0" stroke-linecap="butt" stroke-opacity="1.0" stroke="rgb(0, 0, 0)" stroke-linejoin="round" d=" M 649.323, 349.940 649.323, 359.940 649.323, 369.940 649.323, 379.940 649.323, 389.940 649.323, 399.940 649.323, 409.940 649.323, 419.940 649.323, 429.940 649.323, 439.940 649.323, 449.940 649.323, 459.940 649.323, 469.940 649.323, 479.940 649.323, 489.940 649.323, 499.940 649.323, 509.940 649.323, 519.940 649.323, 529.940 649.323, 539.940 649.323, 549.940 649.323, 559.940 649.323, 569.940 649.323, 579.940 649.323, 589.940 649.323, 599.940 649.323, 609.940 649.323, 619.940 649.323, 629.940 649.323, 639.940 649.323, 649.940 649.323, 659.940 649.323, 669.940 649.323, 679.940 649.323, 689.940 649.323, 699.939 649.323, 709.939 649.323, 719.939 649.323, 731.607 657.488, 737.380 665.653, 743.154 673.818, 748.927 681.983, 754.701 690.148, 760.474 698.313, 766.248 706.478, 772.021 714.643, 777.795 722.808, 783.568 730.973, 789.342 739.138, 795.115 747.303, 800.889 755.468, 806.662 763.633, 812.436 771.798, 818.209 779.963, 823.983 788.128, 829.756 796.293, 835.530 804.458, 841.303 812.623, 847.077 820.788, 852.850 828.953, 858.624 837.118, 864.397 845.282, 870.171 853.447, 875.944 861.612, 881.718 869.777, 887.491 877.942, 893.265 886.107, 899.038 894.272, 904.812 902.437, 910.585 910.602, 916.359 918.767, 922.132 926.932, 927.906 935.097, 933.679 943.262, 939.453 951.427, 945.226 959.592, 951.000 967.757, 956.773 975.922, 962.547 984.087, 968.320 992.252, 974.094 1000.417, 979.867 1008.582, 985.641 1016.747, 991.414 1024.912, 997.188 1030.991, 1001.486 1039.156, 995.713 1047.321, 989.939 1055.485, 984.166 1063.651, 978.392 1071.815, 972.619 1079.980, 966.845 1088.145, 961.072 1096.310, 955.298 1104.475, 949.525 1112.640, 943.751 1120.805, 937.978 1128.970, 932.204 1137.135, 926.431 1145.300, 920.657 1153.465, 914.884 1161.630, 909.110 1169.795, 903.337 1177.960, 897.563 1186.125, 891.790 1194.290, 886.016 1202.455, 880.243 1210.620, 874.469 1218.785, 868.696 1226.950, 862.922 1235.115, 857.149 1243.280, 851.375 1251.445, 845.602 1259.610, 839.828 1267.775, 834.055 1275.940, 828.281 1284.104, 822.508 1292.270, 816.734 1300.434, 810.961 1308.599, 805.187 1316.764, 799.414 1324.929, 793.640 1333.094, 787.867 1341.259, 782.093 1349.424, 776.320 1357.589, 770.546 1365.754, 764.773 1373.919, 758.999 1382.084, 753.226 1390.249, 747.452 1398.414, 741.679 1406.579, 735.905 1412.658, 731.607 1412.658, 721.607 1412.658, 711.607 1412.658, 701.607 1412.658, 691.607 1412.658, 681.607 1412.658, 671.607 1412.658, 661.607 1412.658, 651.607 1412.658, 641.607 1412.658, 631.607 1412.658, 621.607 1412.658, 611.607 1412.658, 601.607 1412.658, 591.607 1412.658, 581.607 1412.658, 571.607 1412.658, 561.607 1412.658, 551.607 1412.658, 541.607 1412.658, 531.607 1412.658, 521.607 1412.658, 511.607 1412.658, 501.607 1412.658, 491.607 1412.658, 481.607 1412.658, 471.607 1412.658, 461.607 1412.658, 451.607 1412.658, 441.607 1412.658, 431.607 1412.658, 421.607 1412.658, 411.607 1412.658, 401.607 1412.658, 391.607 1412.658, 381.607 1412.658, 371.607 1412.658, 361.607 1412.658, 349.940 1404.493, 344.166 1396.328, 338.393 1388.163, 332.619 1379.998, 326.846 1371.833, 321.072 1363.668, 315.299 1355.503, 309.525 1347.338, 303.752 1339.173, 297.978 1331.008, 292.204 1322.843, 286.431 1314.678, 280.657 1306.513, 274.884 1298.348, 269.110 1290.183, 263.337 1282.018, 257.563 1273.854, 251.790 1265.688, 246.016 1257.524, 240.243 1249.359, 234.469 1241.194, 228.696 1233.029, 222.922 1224.864, 217.149 1216.699, 211.375 1208.534, 205.602 1200.369, 199.828 1192.204, 194.055 1184.039, 188.281 1175.874, 182.508 1167.709, 176.734 1159.544, 170.961 1151.379, 165.187 1143.214, 159.414 1135.049, 153.640 1126.884, 147.867 1118.719, 142.093 1110.554, 136.320 1102.389, 130.546 1094.224, 124.773 1086.059, 118.999 1077.894, 113.226 1069.729, 107.452 1061.564, 101.679 1053.399, 95.905 1045.234, 90.132 1037.069, 84.358 1030.991, 80.060 1022.826, 85.833 1014.661, 91.607 1006.496, 97.380 998.331, 103.154 990.166, 108.927 982.001, 114.701 973.836, 120.475 965.671, 126.248 957.506, 132.022 949.341, 137.795 941.176, 143.569 933.011, 149.342 924.846, 155.116 916.681, 160.889 908.516, 166.663 900.351, 172.436 892.186, 178.210 884.021, 183.983 875.856, 189.757 867.691, 195.530 859.526, 201.304 851.361, 207.077 843.196, 212.851 835.031, 218.624 826.866, 224.398 818.701, 230.171 810.536, 235.945 802.372, 241.718 794.207, 247.492 786.042, 253.265 777.877, 259.039 769.712, 264.812 761.547, 270.586 753.382, 276.359 745.217, 282.133 737.052, 287.906 728.887, 293.680 720.722, 299.453 712.557, 305.227 704.392, 311.000 696.227, 316.774 688.062, 322.547 679.897, 328.321 671.732, 334.094 663.567, 339.868 655.402, 345.641 649.323, 349.940 " />
            <path fill="none" stroke-width="3.0" stroke-linecap="butt" stroke-opacity="1.0" stroke="rgb(0, 0, 0)" stroke-linejoin="round" d=" M 1412.658, 349.940 1404.493, 355.713 1396.328, 361.487 1388.163, 367.260 1379.998, 373.034 1371.833, 378.807 1363.668, 384.581 1355.503, 390.354 1347.338, 396.128 1339.173, 401.901 1331.008, 407.675 1322.843, 413.448 1314.678, 419.222 1306.513, 424.995 1298.348, 430.769 1290.183, 436.542 1282.018, 442.316 1273.854, 448.089 1265.688, 453.863 1257.524, 459.636 1249.359, 465.410 1241.194, 471.183 1233.029, 476.957 1224.864, 482.730 1216.699, 488.504 1208.534, 494.277 1200.369, 500.051 1192.204, 505.824 1184.039, 511.598 1175.874, 517.371 1167.709, 523.145 1159.544, 528.918 1151.379, 534.692 1143.214, 540.465 1135.049, 546.239 1126.884, 552.012 1118.719, 557.786 1110.554, 563.559 1102.389, 569.333 1094.224, 575.106 1086.059, 580.880 1077.894, 586.653 1069.729, 592.427 1061.564, 598.200 1053.399, 603.974 1045.234, 609.747 1037.069, 615.521 1030.991, 619.819 " />
            <path fill="none" stroke-width="3.0" stroke-linecap="butt" stroke-opacity="1.0" stroke="rgb(0, 0, 0)" stroke-linejoin="round" d=" M 649.323, 349.940 657.488, 355.713 665.653, 361.487 673.818, 367.260 681.983, 373.034 690.148, 378.807 698.313, 384.581 706.478, 390.354 714.643, 396.128 722.808, 401.901 730.973, 407.675 739.138, 413.448 747.303, 419.222 755.468, 424.995 763.633, 430.769 771.798, 436.542 779.963, 442.316 788.128, 448.089 796.293, 453.863 804.458, 459.636 812.623, 465.410 820.788, 471.183 828.953, 476.957 837.118, 482.730 845.282, 488.504 853.447, 494.277 861.612, 500.051 869.777, 505.824 877.942, 511.598 886.107, 517.371 894.272, 523.145 902.437, 528.918 910.602, 534.692 918.767, 540.465 926.932, 546.239 935.097, 552.012 943.262, 557.786 951.427, 563.559 959.592, 569.333 967.757, 575.106 975.922, 580.880 984.087, 586.653 992.252, 592.427 1000.417, 598.200 1008.582, 603.974 1016.747, 609.747 1024.912, 615.521 1030.991, 619.819 1030.991, 629.819 1030.991, 639.819 1030.991, 649.819 1030.991, 659.819 1030.991, 669.819 1030.991, 679.819 1030.991, 689.819 1030.991, 699.819 1030.991, 709.819 1030.991, 719.819 1030.991, 729.819 1030.991, 739.819 1030.991, 749.819 1030.991, 759.819 1030.991, 769.819 1030.991, 779.819 1030.991, 789.819 1030.991, 799.819 1030.991, 809.819 1030.991, 819.819 1030.991, 829.819 1030.991, 839.819 1030.991, 849.819 1030.991, 859.819 1030.991, 869.819 1030.991, 879.819 1030.991, 889.819 1030.991, 899.819 1030.991, 909.819 1030.991, 919.819 1030.991, 929.819 1030.991, 939.819 1030.991, 949.819 1030.991, 959.819 1030.991, 969.819 1030.991, 979.819 1030.991, 989.819 1030.991, 1001.486 " />
        </g>
    </g>
</svg>
