<?xml version="1.0" ?>
<svg xmlns="http://www.w3.org/2000/svg" xmlns:ev="http://www.w3.org/2001/xml-events" xmlns:xlink="http://www.w3.org/1999/xlink" baseProfile="full" height="585px" version="1.1" viewBox="-1.1708884225303702 -1.1910718147024237 2.3417768450607404 2.2831124973072665" width="600px">
	<defs/>
	<path d="M 0.0,-1.0 L -0.7818314824680298,-0.6234898018587336 L -0.9749279121818236,0.22252093395631434 L -0.43388373911755823,0.900968867902419 L 0.433883739117558,0.9009688679024191 L 0.9749279121818236,0.2225209339563146 L 0.7818314824680299,-0.6234898018587334 L 0.0,-1.0" fill="none" stroke="#000000" stroke-width="0.0019498558243636473"/>
	<path d="M 0.0,-1.0 L -0.7818314824680298,-0.6234898018587336 L -0.9749279121818236,0.22252093395631434 L -0.43388373911755823,0.900968867902419 L 0.433883739117558,0.9009688679024191 L 0.9749279121818236,0.2225209339563146 L 0.7818314824680299,-0.6234898018587334 L 0.0,-1.0" fill="none" stroke="#000000" stroke-width="0.0019498558243636473"/>
	<path d="M -0.009952403499778746,-0.9952071750783753 L -0.7842895231404414,-0.6127204220156541 L -0.9680406352656502,0.23115730604369567 L -0.42283740460552416,0.900968867902419 L 0.4407710160337314,0.8923324958150377 L 0.9724698715094119,0.21175155411323518 L 0.7718790789682511,-0.6282826267803581 L -0.009952403499778746,-0.9952071750783753" fill="none" stroke="#000000" stroke-width="0.0019498558243636473"/>
	<path d="M -0.029574318503255564,-0.9855148558440406 L -0.7889458267225149,-0.5913363289206574 L -0.9542250358577354,0.24813051474281764 L -0.40095333034865,0.9007500198648671 L 0.45424441087037726,0.875086388076775 L 0.9673868458066673,0.19046485755765943 L 0.7520672547551112,-0.6375805954774211 L -0.029574318503255564,-0.9855148558440406" fill="none" stroke="#000000" stroke-width="0.0019498558243636473"/>
	<path d="M -0.058306023180573964,-0.9706006525810537 L -0.7951993579319091,-0.5595741240216352 L -0.9332913570497423,0.2728231331580062 L -0.36859592863491575,0.8997790064919635 L 0.47365975202870336,0.8491829357906387 L 0.9592399785165819,0.1591347942638825 L 0.7224929362518557,-0.650745093101802 L -0.058306023180573964,-0.9706006525810537" fill="none" stroke="#000000" stroke-width="0.0019498558243636473"/>
	<path d="M -0.09531376131883726,-0.9499583677082514 L -0.8021345170673444,-0.5177700551449532 L -0.9049316209019017,0.30430966952682664 L -0.3262967569563142,0.8972380062589087 L 0.4980462202182224,0.8145278239581576 L 0.9473502352770155,0.11846157687728553 L 0.6832802007491595,-0.6668086537679739 L -0.09531376131883726,-0.9499583677082514" fill="none" stroke="#000000" stroke-width="0.0019498558243636473"/>
	<path d="M -0.13948976271051639,-0.9229467790671604 L -0.8085592930308728,-0.4663904164376635 L -0.8687671840951967,0.3413674424000984 L -0.27477566591489544,0.8920686544837834 L 0.5261275331014373,0.7710239748568639 L 0.9308459686465743,0.06938251613989513 L 0.6346184040034697,-0.6845053923758168 L -0.13948976271051639,-0.9229467790671604" fill="none" stroke="#000000" stroke-width="0.0019498558243636473"/>
	<path d="M -0.18945241067899185,-0.8888535140325037 L -0.813055306568854,-0.40607124224726665 L -0.8244109733066216,0.3824909572939476 L -0.21496836222536825,0.883029664599188 L 0.556349810167039,0.7186290239387157 L 0.9087252280357506,0.013086070891781931 L 0.5768120145770461,-0.7023109604438629 L -0.18945241067899185,-0.8888535140325037" fill="none" stroke="#000000" stroke-width="0.0019498558243636473"/>
	<path d="M -0.24355040699117,-0.8469718073714821 L -0.8140404187634109,-0.3376629086043804 L -0.7715413918084291,0.42591304740990454 L -0.1480559602454871,0.868767791681682 L 0.5869186291735027,0.6574226691838182 L 0.8799315198666604,-0.048975132187964815 L 0.5103380287683341,-0.7184936601115771 L -0.24355040699117,-0.8469718073714821" fill="none" stroke="#000000" stroke-width="0.0019498558243636473"/>
	<path d="M -0.2998753733208244,-0.7966873046063345 L -0.809844453517944,-0.262274402013298 L -0.70998414239977,0.4696364747185565 L -0.07549129101740704,0.8479015071491118 L 0.6158480422427638,0.5876794106576861 L 0.8434412386834667,-0.11507726853427583 L 0.435905979329715,-0.731178417371446 L -0.2998753733208244,-0.7966873046063345" fill="none" stroke="#000000" stroke-width="0.0019498558243636473"/>
	<path d="M -0.3562875137030589,-0.7375712192320941 L -0.7987980310814413,-0.18131133831241192 L -0.6397973385451697,0.5114796784337992 L 0.0009837994028953356,0.8191160650353282 L 0.6410241163347298,0.5099413477425654 L 0.7983601991575255,-0.18322960530815285 L 0.3545147684345195,-0.7384249283590338 L -0.3562875137030589,-0.7375712192320941" fill="none" stroke="#000000" stroke-width="0.0019498558243636473"/>
	<path d="M -0.4104586785069222,-0.6694751073891498 L -0.7793335158189811,-0.09650138494648003 L -0.5613543202127711,0.5491398486304014 L 0.07933612805497148,0.7812675757770879 L 0.6602848537352377,0.42508488340941775 L 0.744025617196441,-0.25119539631692633 L 0.26749991555202407,-0.7383204191643506 L -0.4104586785069222,-0.6694751073891498" fill="none" stroke="#000000" stroke-width="0.0019498558243636473"/>
	<path d="M -0.45993635711056896,-0.5926213705120783 L -0.7500956728121901,-0.009900656957125553 L -0.47541764772296274,0.5802754532231393 L 0.15725956285431963,0.7334923116642894 L 0.6715171150918244,0.3343744989058052 L 0.6801085832123803,-0.3165341315255018 L 0.1765644164871975,-0.7290861047985281 L -0.45993635711056896,-0.5926213705120783" fill="none" stroke="#000000" stroke-width="0.0019498558243636473"/>
	<path d="M -0.5022307404841476,-0.5076824699662746 L -0.7100578829885897,0.07612496176731243 L -0.38319695706142765,0.6026087446238853 L 0.23221909332639143,0.6753158518004603 L 0.6727694300332008,0.23949634863837646 L 0.6067106639296355,-0.37666878988359725 L 0.08378639324493742,-0.7091946469801624 L -0.5022307404841476,-0.5076824699662746" fill="none" stroke="#000000" stroke-width="0.0019498558243636473"/>
	<path d="M -0.5349250262048008,-0.41584091958490144 L -0.6586378212276414,0.15894865369020533 L -0.28638290310297937,0.6140466487749385 L 0.3015241822048303,0.6067549930632063 L 0.662377408339992,0.14256445202861293 L 0.5244469359583759,-0.42898002916836864 L -0.008402775967776666,-0.6774937988036929 L -0.5349250262048008,-0.41584091958490144" fill="none" stroke="#000000" stroke-width="0.0019498558243636473"/>
	<path d="M -0.5558066288556156,-0.31882163007045544 L -0.5958045525778164,0.23576508564283724 L -0.18714949601093267,0.6128158831357754 L 0.3624329482061799,0.5284038214615815 L 0.6390959901392281,0.04609290475318281 L 0.4345067163150571,-0.4709269093582707 L -0.09727497721610032,-0.6333291555646507 L -0.5558066288556156,-0.31882163007045544" fill="none" stroke="#000000" stroke-width="0.0019498558243636473"/>
	<path d="M -0.5630140207019084,-0.21888834851674963 L -0.522167302226951,0.30370743340976547 L -0.08811795490327373,0.597605323476108 L 0.412286009741273,0.4414942160379204 L 0.6022301999487021,-0.04707104091758815 L 0.33868276633745054,-0.5001908439879031 L -0.17989969819529253,-0.5766567395015527 L -0.5630140207019084,-0.21888834851674963" fill="none" stroke="#000000" stroke-width="0.0019498558243636473"/>
	<path d="M -0.555190759234709,-0.11879699243454209 L -0.4390350051768899,0.3599969010705974 L 0.007723062461134675,0.5677057854710718 L 0.4486655065441608,0.34792063432423315 L 0.5517536730909997,-0.1338558507563098 L 0.23936007007651083,-0.5148361500556007 L -0.25327654776120706,-0.5081343276194497 L -0.555190759234709,-0.11879699243454209" fill="none" stroke="#000000" stroke-width="0.0019498558243636473"/>
	<path d="M -0.5316351513138973,-0.021700801877577308 L -0.3484354652565309,0.40211886982103334 L 0.09714323292719707,0.5231348308143252 L 0.4695710953559207,0.2502195941986181 L 0.48840234547690586,-0.21111610039818696 L 0.1394566678615529,-0.5134770654115263 L -0.3145027250511483,-0.42917932714668605 L -0.5316351513138973,-0.021700801877577308" fill="none" stroke="#000000" stroke-width="0.0019498558243636473"/>
	<path d="M -0.4924313389209281,0.06899447853092334 L -0.25308386250089987,0.4280156774708581 L 0.17684092435227003,0.4647323413465505 L 0.4736008882707241,0.15149607337615412 L 0.41372972362379795,-0.2758198278032015 L 0.04231163853981666,-0.4954377729476104 L -0.3609679733647807,-0.3419809699736741 L -0.4924313389209281,0.06899447853092334" fill="none" stroke="#000000" stroke-width="0.0019498558243636473"/>
	<path d="M -0.4385458179706605,0.14982275642393053 L -0.15629269739013524,0.436281887710842 L 0.24365201211517568,0.39421185902284367 L 0.46012178690248046,0.05529226003418969 L 0.3301104713782522,-0.3252635385167667 L -0.0484807621202412,-0.46088925839756856 L -0.39056499291487146,-0.24945596627747058 L -0.4385458179706605,0.14982275642393053" fill="none" stroke="#000000" stroke-width="0.0019498558243636473"/>
	<path d="M -0.37187299674911534,0.21748910643022762 L -0.06181919055872742,0.42634425621280536 L 0.2947857270040588,0.3141534852292346 L 0.4294109795998141,-0.03460126769519317 L 0.24068100616924676,-0.3573005603079086 L -0.12928667390456555,-0.41094524340559163 L -0.4018988515607113,-0.1551397764635741 L -0.37187299674911534,0.21748910643022762" fill="none" stroke="#000000" stroke-width="0.0019498558243636473"/>
	<path d="M -0.2952148105057196,0.26912677915111644 L 0.02634836500758872,0.398606035152014 L 0.3280706842614858,0.22792681660213276 L 0.38274908684411707,-0.11438594370890268 L 0.14920962037461377,-0.37056375535910874 L -0.19668773355854755,-0.3476995011008552 L -0.3944752124235381,-0.06301043073639662 L -0.2952148105057196,0.26912677915111644" fill="none" stroke="#000000" stroke-width="0.0019498558243636473"/>
	<path d="M -0.21218297100486186,0.3025600253112075 L 0.10425703457500726,0.35453441700686034 L 0.3421893666639627,0.1395371615122104 L 0.32244612626395197,-0.18053442264050398 L 0.05989437608489251,-0.3646599043138278 L -0.24775906090870778,-0.2741890403324025 L -0.36884487167424473,0.022751763456455965 L -0.21218297100486186,0.3025600253112075" fill="none" stroke="#000000" stroke-width="0.0019498558243636473"/>
	<path d="M -0.1270182850311602,0.3165480883543843 L 0.16829265582401493,0.2966713989732947 L 0.33687579429915043,0.05339509517164129 L 0.2517845886531466,-0.23008880435570497 L -0.02290554771828418,-0.3403111412469441 L -0.28034733946982415,-0.19427224769704837 L -0.3266818665570434,0.09805761080037716 L -0.1270182850311602,0.3165480883543843" fill="none" stroke="#000000" stroke-width="0.0019498558243636473"/>
	<path d="M -0.04432948006209672,0.31098249810939027 L 0.21549692877805848,0.2285525992417438 L 0.31304975491209136,-0.025982068478323544 L 0.17486973054607138,-0.2609517086966037 L -0.094990767613571,-0.29941938982156335 L -0.2933212803016602,-0.11241816336841509 L -0.2707748862588933,0.1592362330137716 L -0.04432948006209672,0.31098249810939027" fill="none" stroke="#000000" stroke-width="0.0019498558243636473"/>
	<path d="M 0.031236370991677045,0.2870092403946896 L 0.24386841866018993,0.15452575618596642 L 0.27286257306841194,-0.09431877418177126 L 0.09638564457398684,-0.27213934383826877 L -0.15267164019348922,-0.24503343695360472 L -0.2867640659613598,-0.03341235427166616 L -0.20491730113941672,0.20336891266465484 L 0.031236370991677045,0.2870092403946896" fill="none" stroke="#000000" stroke-width="0.0019498558243636473"/>
	<path d="M 0.09536932192419256,0.24705027425910214 L 0.25261348179804377,0.07947058820499114 L 0.21963453750202164,-0.14795207167204827 L 0.02126630673889636,-0.2639638039077802 L -0.19311588675221858,-0.18120540792063067 L -0.26207787867272514,0.038004356147450194 L -0.13368988253821062,0.2285960648889156 L 0.09536932192419256,0.24705027425910214" fill="none" stroke="#000000" stroke-width="0.0019498558243636473"/>
	<path d="M 0.14448551067614124,0.19470571979151988 L 0.24231230397253403,0.008433709646498977 L 0.15767299010739566,-0.1841890558786604 L -0.04569730125146565,-0.2381137055551653 L -0.21465659271290605,-0.11273387831421731 L -0.22197509166501564,0.09753685864936948 L -0.06214181912668362,0.23436035166065466 L 0.14448551067614124,0.19470571979151988" fill="none" stroke="#000000" stroke-width="0.0019498558243636473"/>
	<path d="M 0.1760893318675013,0.13452887965179994 L 0.2149688160484351,-0.053794798862395285 L 0.09197239718018935,-0.20160989661929044 L -0.10028111265973706,-0.19760863012944704 L -0.21702089930497498,-0.04480403467067895 L -0.17033952235398894,0.14173891273086014 L 0.004610989222575204,0.2215495678991516 L 0.1760893318675013,0.13452887965179994" fill="none" stroke="#000000" stroke-width="0.0019498558243636473"/>
	<path d="M 0.18906439859855645,0.07168050737432662 L 0.1739218017652849,-0.10312443369828347 L 0.027812540844546395,-0.2002745728410004 L -0.13924013060457657,-0.14661387377767215 L -0.20144214372740962,0.017450062618236006 L -0.11195411395262578,0.1683737459462051 L 0.06183764707622422,0.19250856437818828 L 0.18906439859855645,0.07168050737432662" fill="none" stroke="#000000" stroke-width="0.0019498558243636473"/>
	<path d="M 0.18384993183348608,0.011485115155310574 L 0.12360798217879443,-0.13657881258451132 L -0.02971329919985729,-0.18179610874814672 L -0.16065986024017098,-0.09011722705963021 L -0.17062626965573477,0.06942176466121201 L -0.05210761787892686,0.17668475164623565 L 0.10564913296240938,0.15090051692953 L 0.18384993183348608,0.011485115155310574" fill="none" stroke="#000000" stroke-width="0.0019498558243636473"/>
	<path d="M 0.16246657667722567,-0.04107134377139535 L 0.06918538411340608,-0.1526290484851604 L -0.07619381381244983,-0.14925396662440404 L -0.1641975158669772,-0.03348760366939901 L -0.12855713945474595,0.10749560787128926 L 0.0038893850546469558,0.16753243417410754 L 0.13340712328889426,0.101413920504962 L 0.16246657667722567,-0.04107134377139535" fill="none" stroke="#000000" stroke-width="0.0019498558243636473"/>
	<path d="M 0.12836962372223987,-0.08184888643401775 L 0.016045115040194013,-0.15139535920372568 L -0.10836169252781758,-0.10693803859050767 L -0.15116993544668597,0.018045806219811195 L -0.080144133669486,0.12944079087925003 L 0.05123183540323062,0.14336421989567155 L 0.144029187478325,0.049331467233518285 L 0.12836962372223987,-0.08184888643401775" fill="none" stroke="#000000" stroke-width="0.0019498558243636473"/>
	<path d="M 0.08612750270768307,-0.1080033789249621 L -0.03074082225865863,-0.13467619844921547 L -0.1244606810657343,-0.05993509364741554 L -0.12445910849509678,0.05993835912399194 L -0.030737288724510738,0.13467700495532625 L 0.08613033638205703,0.10800111914505614 L 0.13814006145426033,-1.8122027811984243e-06 L 0.08612750270768307,-0.1080033789249621" fill="none" stroke="#000000" stroke-width="0.0019498558243636473"/>
	<path d="M 0.040947319926422414,-0.11831483724135716 L -0.06697202821080264,-0.10578199826972963 L -0.12446007312488412,-0.013593157041472067 L -0.08822714445311233,0.08883160868888547 L 0.014442623497618379,0.12436436124192358 L 0.10623680137881308,0.06624821320914433 L 0.11803250098594523,-0.04175419058739453 L 0.040947319926422414,-0.11831483724135716" fill="none" stroke="#000000" stroke-width="0.0019498558243636473"/>
	<path d="M -0.0019059270502014489,-0.11333822412202572 L -0.0897997178645045,-0.06917511312972764 L -0.11007248954641871,0.027078268964407 L -0.04745843153028376,0.10294116223231886 L 0.05089279340373293,0.10128726072226547 L 0.11092070688094557,0.023361986004759507 L 0.08742306570672989,-0.07215534067199746 L -0.0019059270502014489,-0.11333822412202572" fill="none" stroke="#000000" stroke-width="0.0019498558243636473"/>
	<path d="M -0.03772795928582943,-0.09533908708475647 L -0.0980620976522799,-0.029946042176933866 L -0.08455347638431412,0.05799698327805693 L -0.007374362822366344,0.10226709740181385 L 0.07535779635441092,0.06952800131339253 L 0.10134399785741126,-0.015567097876772108 L 0.05101610193296761,-0.08893985485480083 L -0.03772795928582943,-0.09533908708475647" fill="none" stroke="#000000" stroke-width="0.0019498558243636473"/>
	<path d="M -0.06294861800459724,-0.06800372251579231 L -0.0924152725548339,0.006815583856820323 L -0.05229134194327122,0.07650261657267328 L 0.027209035700558954,0.08858161864032114 L 0.08622045449868865,0.03395685513608617 L 0.08030611248255573,-0.04623811287923297 L 0.013919629820899018,-0.09161483881087562 L -0.06294861800459724,-0.06800372251579231" fill="none" stroke="#000000" stroke-width="0.0019498558243636473"/>
	<path d="M -0.0755737781751792,-0.03594695389974013 L -0.07522394023780211,0.03667339986203638 L -0.018228941012621708,0.08167793552667447 L 0.05249282259769401,0.06517731981347698 L 0.08368642013350548,-0.00040314709429833256 L 0.05186243641691812,-0.06568003601736497 L -0.01901501972251459,-0.0814985181907844 L -0.0755737781751792,-0.03594695389974013" fill="none" stroke="#000000" stroke-width="0.0019498558243636473"/>
	<path d="M -0.07542024098345634,-0.0040752670778374245 L -0.05020992320783192,0.05642503135330946 L 0.012809490839069638,0.07443613031453292 L 0.0661830970181575,0.03639530492856853 L 0.06971948125342708,-0.029051927397530142 L 0.02075567408662838,-0.0726224658419693 L -0.04383757900599433,-0.06150680627907401 L -0.07542024098345634,-0.0040752670778374245" fill="none" stroke="#000000" stroke-width="0.0019498558243636473"/>
	<path d="M -0.06409340374000944,0.023107136555811116 L -0.02189569676928929,0.06451730485517891 L 0.03678991645952326,0.057344626685418905 L 0.06777197221678431,0.006990275004330842 L 0.04772035059851364,-0.048627896330642316 L -0.00826566833819118,-0.06762826990032927 L -0.05802747042733129,-0.035703176869768184 L -0.06409340374000944,0.023107136555811116" fill="none" stroke="#000000" stroke-width="0.0019498558243636473"/>
	<path d="M -0.04469527192195648,0.04214323972218147 L 0.005081865353355839,0.06122005089012297 L 0.051032254366429664,0.03419691507634724 L 0.058554314973303614,-0.01857719527985961 L 0.021983782114928213,-0.057362298684608584 L -0.03114098706341928,-0.052952421202196585 L -0.06081595782264156,-0.008668290521986918 L -0.04469527192195648,0.04214323972218147" fill="none" stroke="#000000" stroke-width="0.0019498558243636473"/>
	<path d="M -0.021295492042970363,0.051111075290021776 L 0.02668272565017698,0.04851672031920415 L 0.05456830670032995,0.009388285387290588 L 0.04136283981453366,-0.03680971992737403 L -0.0029896890997736895,-0.05528925535527841 L -0.04509092114340789,-0.03213485380538489 L -0.05323776987888864,0.015217748091520825 L -0.021295492042970363,0.051111075290021776" fill="none" stroke="#000000" stroke-width="0.0019498558243636473"/>
	<path d="M 0.0017570574744662781,0.049864540939515395 L 0.04008117538193847,0.029716309900111662 L 0.048223350719833656,-0.012808908596328713 L 0.020052359388608134,-0.04568875766561489 L -0.023218467555826856,-0.04416404033188314 L -0.04900531486029997,-0.009382899845998972 L -0.0378901605487197,0.03246375560019866 L 0.0017570574744662781,0.049864540939515395" fill="none" stroke="#000000" stroke-width="0.0019498558243636473"/>
	<path d="M 0.0205689934083158,0.03997449644041524 L 0.04407787743750724,0.008842204255738475 L 0.03439522073141406,-0.028948448081605575 L -0.00118773872007372,-0.04494032857277466 L -0.03587630668989148,-0.027091225033005734 L -0.04354928397893348,0.011158123516896441 L -0.018428762188338416,0.04100517747433581 L 0.0205689934083158,0.03997449644041524" fill="none" stroke="#000000" stroke-width="0.0019498558243636473"/>
	<path d="M 0.03235275107367594,0.024369528283871317 L 0.03922447478173684,-0.010100246972749471 L 0.01655936894568004,-0.036964330251399 L -0.018575279456041406,-0.035993518915821636 L -0.03972236356071576,-0.00791885370264942 L -0.03095769771562109,0.026118869863795267 L 0.0011187459312854385,0.04048855169495293 L 0.03235275107367594,0.024369528283871317" fill="none" stroke="#000000" stroke-width="0.0019498558243636473"/>
	<path d="M 0.035868531733088405,0.0067337538653856385 L 0.02762832451037627,-0.023844720475537304 L -0.001416574583761824,-0.03646763395472492 L -0.02939476412347182,-0.021629675261839225 L -0.03523809673429349,0.009495870068179143 L -0.014546423778015244,0.033470831556409814 L 0.0170990029760777,0.03224157420212685 L 0.035868531733088405,0.0067337538653856385" fill="none" stroke="#000000" stroke-width="0.0019498558243636473"/>
	<path d="M 0.031567015715291996,-0.009228684168298203 L 0.012466436549069117,-0.030434077157287416 L -0.016021623607564844,-0.028721989304802874 L -0.032445074406140736,-0.005381657683993004 L -0.02443672241798827,0.022011171938674218 L 0.0019729799692039807,0.03282914014543801 L 0.026896988198128753,0.018926096230269265 L 0.031567015715291996,-0.009228684168298203" fill="none" stroke="#000000" stroke-width="0.0019498558243636473"/>
	<path d="M 0.02139776537578714,-0.020518548626123203 L -0.002700758796085067,-0.029522552442585087 L -0.024765556509065763,-0.016295472119459687 L -0.028181385045432293,0.009202431076672209 L -0.010376055847096752,0.027770715976685702 L 0.015242655037069276,0.025427085326885663 L 0.029383335784823453,0.003936340807924401 L 0.02139776537578714,-0.020518548626123203" fill="none" stroke="#000000" stroke-width="0.0019498558243636473"/>
	<path d="M 0.008317046641370795,-0.025405936773494512 L -0.014677567448632125,-0.022342871390320283 L -0.026619673882002478,-0.002455168138717407 L -0.018516622939835532,0.0192813267976427 L 0.003529822746300603,0.026498589387988877 L 0.022918239909210363,0.013761873696463554 L 0.025048754973588373,-0.009337813579562922 L 0.008317046641370795,-0.025405936773494512" fill="none" stroke="#000000" stroke-width="0.0019498558243636473"/>
	<path d="M -0.004403724258259244,-0.02371142897103972 L -0.021284018829085927,-0.011340863885725742 L -0.02213701310674944,0.009569603017003703 L -0.006320385002256858,0.023273963663602494 L 0.014255621921293357,0.019452554969170064 L 0.02409685477641729,0.0009829756231454385 L 0.015792664498640824,-0.018226804416156237 L -0.004403724258259244,-0.02371142897103972" fill="none" stroke="#000000" stroke-width="0.0019498558243636473"/>
	<path d="M -0.013917831296753511,-0.016739105125948596 L -0.021764785253324717,0.0004447373372105379 L -0.013222411993433113,0.017293683514461755 L 0.005276707185564405,0.021120133278468275 L 0.01980235822862133,0.009042691911582704 L 0.01941642963103314,-0.009844080902023728 L 0.004409533498292465,-0.021318060013750938 L -0.013917831296753511,-0.016739105125948596" fill="none" stroke="#000000" stroke-width="0.0019498558243636473"/>
	<path d="M -0.01842237858000426,-0.0068747129921816535 L -0.01686103222083304,0.010116882114461007 L -0.002602984696997569,0.019490258642128572 L 0.01361516339488838,0.014187072883451418 L 0.019580815751704044,-0.0017992681200115004 L 0.010801714471636269,-0.01643072353072483 L -0.006111298120393821,-0.01868950899712301 L -0.01842237858000426,-0.0068747129921816535" fill="none" stroke="#000000" stroke-width="0.0019498558243636473"/>
	<path d="M -0.017509781553727247,0.0030567663845379447 L -0.008527294037541369,0.015595561137265937 L 0.006876419814011592,0.01639058026216146 L 0.01710204929221248,0.004843158142743504 L 0.014449486835148117,-0.010351260840582145 L 0.0009161660754012759,-0.017750969283708763 L -0.013307046425504846,-0.011783835802417939 L -0.017509781553727247,0.0030567663845379447" fill="none" stroke="#000000" stroke-width="0.0019498558243636473"/>
	<path d="M -0.012165615797022099,0.010516770913031458 L 0.0006372052109372521,0.016068560846481946 L 0.01296019769844334,0.009520396723624607 L 0.015523896979167652,-0.00419682031282346 L 0.006397785204789923,-0.014753746054182622 L -0.007545989319829238,-0.01420080009516933 L -0.015807479976486828,-0.0029543620209625965 L -0.012165615797022099,0.010516770913031458" fill="none" stroke="#000000" stroke-width="0.0019498558243636473"/>
	<path d="M -0.004414362198147074,0.013878009164749804 L 0.00809795466672584,0.012104084525851702 L 0.014512346499382876,0.0012155373606594763 L 0.00999864542008519,-0.010588334229552772 L -0.0020442395957335794,-0.014418974182255285 L -0.012547770501076604,-0.0073918324822483126 L -0.013602574291236647,0.005201509842795383 L -0.004414362198147074,0.013878009164749804" fill="none" stroke="#000000" stroke-width="0.0019498558243636473"/>
	<path d="M 0.0032923984367380548,0.012785388771264304 L 0.012048796305929487,0.0053974587610121205 L 0.011732204806102379,-0.006054867784376038 L 0.0025810237939162205,-0.012947755391335011 L -0.008513720778379377,-0.010090719102541591 L -0.013197459956300901,0.00036483448362342134 L -0.00794324260800586,0.010545660262352792 L 0.0032923984367380548,0.012785388771264304" fill="none" stroke="#000000" stroke-width="0.0019498558243636473"/>
	<path d="M 0.008777914842196513,0.008157160145860433 L 0.011850464995261134,-0.001776944010980142 L 0.005999373301461931,-0.010372973084500577 L -0.004369368853250982,-0.01115794185530234 L -0.011447887142584285,-0.0035407528285268746 L -0.009905912919211056,0.006742695296324397 L -0.0009045842238732541,0.011948756337125102 L 0.008777914842196513,0.008157160145860433" fill="none" stroke="#000000" stroke-width="0.0019498558243636473"/>
	<path d="M 0.010735153671708556,0.0018290569665544284 L 0.00812327315537635,-0.007252682744008657 L -0.0006055977315286164,-0.010873004420566856 L -0.0088784411746501,-0.006305731999568068 L -0.010465637326065409,0.0030098852305969143 L -0.004171995110857676,0.010058997491652866 L 0.005263244516016895,0.009533479475339371 L 0.010735153671708556,0.0018290569665544284" fill="none" stroke="#000000" stroke-width="0.0019498558243636473"/>
	<path d="M 0.009043737335871067,-0.004052147325991648 L 0.00247058164854577,-0.009597151101740475 L -0.005962972410815816,-0.007915304351673343 L -0.009906286622363064,-0.0002730719820122937 L -0.0063899649558501245,0.007574789159757311 L 0.0019381306539485747,0.009718679566689831 L 0.008806774350663594,0.004544206034970619 L 0.009043737335871067,-0.004052147325991648" fill="none" stroke="#000000" stroke-width="0.0019498558243636473"/>
	<path d="M 0.004717329148713882,-0.007701832633077241 L -0.003080328609005383,-0.008490170543975082 L -0.008558436096890991,-0.0028852368673425166 L -0.00759186664353701,0.004892339018505282 L -0.0009084667617426483,0.008985883837889737 L 0.006459027120988673,0.006312874848717653 L 0.008962741841473476,-0.0011138576607178327 L 0.004717329148713882,-0.007701832633077241" fill="none" stroke="#000000" stroke-width="0.0019498558243636473"/>
	<path d="M -0.0004980069756141325,-0.008229099578181708 L -0.006744271393136766,-0.004741402133452484 L -0.007911961893562601,0.0023166678247439764 L -0.003121783713525628,0.007630239659496734 L 0.004019161275578771,0.007198085402124562 L 0.008133595848223433,0.0013456260227690375 L 0.0061232668520369215,-0.005520117197500117 L -0.0004980069756141325,-0.008229099578181708" fill="none" stroke="#000000" stroke-width="0.0019498558243636473"/>
	<path d="M -0.004742397016196166,-0.005859179365158882 L -0.007537727065071855,5.461670818691748e-05 L -0.004656994892337563,0.005927285286290157 L 0.0017305494197104926,0.007336587149231556 L 0.006814954721941645,0.0032212892496972707 L 0.006767560118808782,-0.0033197051571847167 L 0.0016240547131446633,-0.007360893871062301 L -0.004742397016196166,-0.005859179365158882" fill="none" stroke="#000000" stroke-width="0.0019498558243636473"/>
	<path d="M -0.006671790804019874,-0.0017773567514182058 L -0.005549386990277129,0.004108052286249407 L -0.0002481815859907684,0.006900014163376126 L 0.005239909614528388,0.004496124640842265 L 0.006782242000630724,-0.0012934384404742992 L 0.0032174078277340734,-0.006109015994777846 L -0.0027702000626054126,-0.006324379903797446 L -0.006671790804019874,-0.0017773567514182058" fill="none" stroke="#000000" stroke-width="0.0019498558243636473"/>
	<path d="M -0.005885017659069753,0.002348147564575612 L -0.001833392802722704,0.006065138140513356 L 0.0035988142284721393,0.005214955990373428 L 0.006321040743195674,0.00043780561376653227 L 0.004283394652559966,-0.004669021319613555 L -0.00097973497678093,-0.006259979968646649 L -0.005505104185654392,-0.0031370460209687243 L -0.005885017659069753,0.002348147564575612" fill="none" stroke="#000000" stroke-width="0.0019498558243636473"/>
	<path d="M -0.0030012152297635686,0.004993769218269824 L 0.0020330589020824104,0.005460008732718975 L 0.005536398213816561,0.001814750307549993 L 0.004870716748604658,-0.0031970521133641333 L 0.0005372862271785048,-0.00580140908493689 L -0.004200731781954753,-0.004037186688373384 L -0.005775513079963812,0.0007671196281356148 L -0.0030012152297635686,0.004993769218269824" fill="none" stroke="#000000" stroke-width="0.0019498558243636473"/>
	<path d="M 0.000636558361318422,0.0053306745492793005 L 0.004564576831987575,0.0028259398511965438 L 0.0050553758477713765,-0.0018067851935048371 L 0.00173937373930923,-0.005078964135795792 L -0.002886412271610984,-0.004526579491845027 L -0.005338670969927929,-0.0005655881651407342 L -0.0037708015388476903,0.0038213025858105454 L 0.000636558361318422,0.0053306745492793005" fill="none" stroke="#000000" stroke-width="0.0019498558243636473"/>
	<path d="M 0.0035177008666023952,0.0034934892974807018 L 0.0049245705327517555,-0.0005720943335329747 L 0.0026231381448071052,-0.004206879262798659 L -0.0016535707684440198,-0.004673798302478927 L -0.004685107166360216,-0.001621251892281884 L -0.0041886623092377085,0.00265213026031507 L -0.0005380693001193113,0.004928404233296673 L 0.0035177008666023952,0.0034934892974807018" fill="none" stroke="#000000" stroke-width="0.0019498558243636473"/>
	<path d="M 0.0045649993909152725,0.00046699733473539416 L 0.0032113437842517948,-0.003277892165562213 L -0.0005605191914284185,-0.004554462008376753 L -0.003910299783455239,-0.0024014290647896897 L -0.004315544882961092,0.0015599289448096978 L -0.0014710966645245277,0.004346628642215893 L 0.0024811173472022094,0.0038602283169676685 L 0.0045649993909152725,0.00046699733473539416" fill="none" stroke="#000000" stroke-width="0.0019498558243636473"/>
	<path d="M 0.0035424455027581103,-0.0023618989520290986 L 0.0003620716855054196,-0.0042422153285945514 L -0.0030909494958492466,-0.0029280570373059 L -0.004216422662950218,0.0005909879245526999 L -0.002166843565501764,0.003665006925266434 L 0.0015144129323230852,0.003979200958737811 L 0.004055285603714612,0.001296975509372606 L 0.0035424455027581103,-0.0023618989520290986" fill="none" stroke="#000000" stroke-width="0.0019498558243636473"/>
	<path d="M 0.0011048791710089921,-0.003803049004167224 L -0.0022844625454163867,-0.0032349915902852846 L -0.003953557370599714,-0.00023091952711605903 L -0.0026455428578483165,0.0029470396498714763 L 0.0006546193861024455,0.0039058178618524555 L 0.0034618398805161157,0.0019234355596939037 L 0.0036622243362368634,-0.0015073329498492675 L 0.0011048791710089921,-0.003803049004167224" fill="none" stroke="#000000" stroke-width="0.0019498558243636473"/>
	<path d="M -0.0015304539580709418,-0.0033613642620334617 L -0.0035822428391722424,-0.0008992192508226031 L -0.002936529797939795,0.0022400561969875745 L -7.954992456725755e-05,0.003692523639647025 L 0.002837332664527162,0.002364445467896852 L 0.0036176458861939633,-0.0007441083670774475 L 0.0016737979690291107,-0.003292333424597939 L -0.0015304539580709418,-0.0033613642620334617" fill="none" stroke="#000000" stroke-width="0.0019498558243636473"/>
	<path d="M -0.0031486794521179036,-0.0014194949674482546 L -0.0030729753824736343,0.0015766960878721829 L -0.0006832581725526006,0.00338560283028599 L 0.0022209663772272716,0.0026450815877825757 L 0.003452757945497282,-8.724004015250473e-05 L 0.0020845523573812656,-0.002753868138480242 L -0.0008533636729616799,-0.0033467773598597466 L -0.0031486794521179036,-0.0014194949674482546" fill="none" stroke="#000000" stroke-width="0.0019498558243636473"/>
	<path d="M -0.0030881232417169285,0.000977179039643756 L -0.0011614240108920744,0.003023653137923517 L 0.0016398511888667784,0.002793254752063187 L 0.0032062849965407867,0.00045947856588616815 L 0.0023583208055249125,-0.0022202943520577834 L -0.0002655070530286738,-0.0032281403371513134 L -0.0026894026852948005,-0.0018051308063075317 L -0.0030881232417169285,0.000977179039643756" fill="none" stroke="#000000" stroke-width="0.0019498558243636473"/>
	<path d="M -0.0015252063969702246,0.002637255915872091 L 0.0011109390681132204,0.002836756546850816 L 0.0029105247558803,0.0009001216387628699 L 0.002518425938584274,-0.0017143232224487753 L 0.00022990102300730788,-0.003037847731335695 L -0.002231744052020381,-0.0020738109377262163 L -0.003012840336594497,0.0004518477900249092 L -0.0015252063969702246,0.002637255915872091" fill="none" stroke="#000000" stroke-width="0.0019498558243636473"/>
	<path d="M 0.0006431247549345644,0.0028013528667822475 L 0.0025911675907770277,0.0012437997632840801 L 0.0025880083805781178,-0.0012503599308583864 L 0.0006360260740537573,-0.0028029730943700698 L -0.0017948968388005874,-0.002244890347589926 L -0.002874225822815048,3.6406183432168655e-06 L -0.0017892041387278321,0.002249430124408837 L 0.0006431247549345644,0.0028013528667822475" fill="none" stroke="#000000" stroke-width="0.0019498558243636473"/>
	<path d="M 0.00226771250506966,0.0015024175222554325 L 0.0025885329391693635,-0.0008362270263897727 L 0.0009601352736253633,-0.0025451755682407875 L -0.0013912638361488461,-0.002337554995086503 L -0.002695012900692694,-0.0003697078331999662 L -0.001969362282770392,0.001876536867751566 L 0.00023925830174754514,0.0027097110329100307 L 0.00226771250506966,0.0015024175222554325" fill="none" stroke="#000000" stroke-width="0.0019498558243636473"/>
	<path d="M 0.002538951133683841,-0.00047479674706202616 L 0.001211799094643043,-0.0022810628585107962 L -0.001027862378860674,-0.0023696421122983997 L -0.002493522516510819,-0.0006738325236352834 L -0.0020815093406385686,0.001529386699003733 L -0.0001020771762128695,0.002580946543489724 L 0.0019542211838960467,0.001689000999013049 L 0.002538951133683841,-0.00047479674706202616" fill="none" stroke="#000000" stroke-width="0.0019498558243636473"/>
	<path d="M 0.0014015500016366581,-0.002022810131741864 L -0.0007076445112355444,-0.0023569774037702313 L -0.0022839682738299977,-0.0009162926171825637 L -0.002140417341768254,0.0012143791991066771 L -0.0003850884947981736,0.002430598709647343 L 0.0016602198431286714,0.0018165278166455538 L 0.00245534877686664,-0.00016542557270491482 L 0.0014015500016366581,-0.002022810131741864" fill="none" stroke="#000000" stroke-width="0.0019498558243636473"/>
	<path d="M -0.00043065398214488216,-0.0023130927980977677 L -0.0020769571374200883,-0.001105490929075747 L -0.002159269206013384,0.0009345681574456379 L -0.0006156075214138117,0.0022708783596942722 L 0.0013916191829152972,0.001897170839616497 L 0.0023509282586511543,9.485498207504201e-05 L 0.001539940405425714,-0.001778888611657934 L -0.00043065398214488216,-0.0023130927980977677" fill="none" stroke="#000000" stroke-width="0.0019498558243636473"/>
	<path d="M -0.0018800733078155275,-0.001249909822916071 L -0.0021494253839716214,0.0006905944735667605 L -0.0008002163057096695,0.002111067045893823 L 0.0011515719721895221,0.0019418630747429226 L 0.002236203067242702,0.00031039660152268886 L 0.0016369276424325668,-0.0015548048435809114 L -0.0001949876843679722,-0.0022492065292292122 L -0.0018800733078155275,-0.001249909822916071" fill="none" stroke="#000000" stroke-width="0.0019498558243636473"/>
	<path d="M -0.002120396936014909,0.00048146362600059956 L -0.0009456224450273196,0.0019579807406825056 L 0.0009412250342483997,0.001960098422102104 L 0.0021193108652433484,0.00048622201295760864 L 0.001701512388646873,-0.001353789489065516 L 2.4403788718904413e-06,-0.0021743698935493983 L -0.0016984692859682827,-0.0013576054191279034 L -0.002120396936014909,0.00048146362600059956" fill="none" stroke="#000000" stroke-width="0.0019498558243636473"/>
	<path d="M -0.0010582382717634598,0.0018164393667119327 L 0.0007603487125085513,0.001959895417656858 L 0.0020063776079744596,0.0006275102445254957 L 0.0017415632419910398,-0.0011774029416098042 L 0.00016531623337243443,-0.0020957076980698697 L -0.0015354172708122171,-0.001435901813237007 L -0.0020799502532708077,0.0003051674240223944 L -0.0010582382717634598,0.0018164393667119327" fill="none" stroke="#000000" stroke-width="0.0019498558243636473"/>
	<path d="M 0.0006078441233552668,0.0019478653600901222 L 0.001901887074159154,0.0007392425153377528 L 0.001763770266695088,-0.0010260450212631477 L 0.00029749847405293817,-0.002018699729348753 L -0.001392795737414004,-0.001491232367264718 L -0.00203428635075283,0.00015916338296633408 L -0.0011439178500956123,0.001689705859482409 L 0.0006078441233552668,0.0019478653600901222" fill="none" stroke="#000000" stroke-width="0.0019498558243636473"/>
	<path d="M 0.0018090273124410493,0.0008259725804418836 L 0.001773681447635729,-0.0008993690249904844 L 0.00040271727625277535,-0.0019474674108202826 L -0.0012715012180838652,-0.0015290831152068734 L -0.0019882533613052706,4.073195376854571e-05 L -0.0012078101704865029,0.0015798750307758126 L 0.00048213871354608486,0.0019293399860313982 L 0.0018090273124410493,0.0008259725804418836" fill="none" stroke="#000000" stroke-width="0.0019498558243636473"/>
	<path d="M 0.001775786638884906,-0.0007966080918628708 L 0.00048437157421455984,-0.001885042921780951 L -0.0011717851652188285,-0.001554001983729956 L -0.0019455637751811413,-5.276585606678731e-05 L -0.0012542931801636102,0.0014882040374419809 L 0.00038148576243520095,0.001908525936926923 L 0.0017299981450289129,0.0008916888790716611 L 0.001775786638884906,-0.0007966080918628708" fill="none" stroke="#000000" stroke-width="0.0019498558243636473"/>
	<path d="M 0.0005453988916377155,-0.0018336076708867816 L -0.0010935215567129918,-0.0015696457073933888 L -0.0019089979690841896,-0.00012370851129544976 L -0.0012869599742730605,0.001415383717001711 L 0.00030418513036492686,0.0018886631378303988 L 0.0016662726275922632,0.000939740694165828 L 0.001773622850475336,-0.0007168256594223177 L 0.0005453988916377155,-0.0018336076708867816" fill="none" stroke="#000000" stroke-width="0.0019498558243636473"/>
	<path d="M -0.0010364137270477464,-0.0015788434051001044 L -0.0018805828693149577,-0.00017409188114387675 L -0.0013086347540884767,0.0013617543801408847 L 0.0002487420222508038,0.001872171818452482 L 0.0016188109824226656,0.0009728056921240013 L 0.0017698822551040954,-0.0006591029619935987 L 0.0005881960906736162,-0.0017946936424797877 L -0.0010364137270477464,-0.0015788434051001044" fill="none" stroke="#000000" stroke-width="0.0019498558243636473"/>
	<path d="M -0.0018617395833521377,-0.00020544831594735986 L -0.0013214016053644702,0.0013274716886193842 L 0.000213978733143126,0.0018607784361681164 L 0.001588228721223251,0.0009928810683195418 L 0.001766510088260543,-0.0006226759950564388 L 0.0006145733285987889,-0.0017693453338793992 L -0.0010001496825091005,-0.001583661548223844 L -0.0018617395833521377,-0.00020544831594735986" fill="none" stroke="#000000" stroke-width="0.0019498558243636473"/>
	<path d="M -0.001326633610154623,0.0013126286734445416 L 0.000199111894954747,0.0018556145136391328 L 0.0015749220820207273,0.0010012847774255645 L 0.0017647838187693477,-0.0006070328186766697 L 0.0006257273449552722,-0.0017582423211024954 L -0.0009845145821218396,-0.0015854594941309996 L -0.0018533969484236315,-0.00021879333059907405 L -0.001326633610154623,0.0013126286734445416" fill="none" stroke="#000000" stroke-width="0.0019498558243636473"/>
</svg>
