<?xml version="1.0" ?>
<svg xmlns="http://www.w3.org/2000/svg" xmlns:ev="http://www.w3.org/2001/xml-events" xmlns:xlink="http://www.w3.org/1999/xlink" baseProfile="full" height="585px" version="1.1" viewBox="-1.1708884225303702 -1.1910718147024237 2.3417768450607404 2.2831124973072665" width="600px">
	<defs/>
	<path d="M 0.0,-1.0 L -0.7818314824680298,-0.6234898018587336 L -0.9749279121818236,0.22252093395631434 L -0.43388373911755823,0.900968867902419 L 0.433883739117558,0.9009688679024191 L 0.9749279121818236,0.2225209339563146 L 0.7818314824680299,-0.6234898018587334 L 0.0,-1.0" fill="none" stroke="#000000" stroke-width="0.0019498558243636473"/>
	<path d="M -0.8118142790944107,-0.49212658673728155 L -0.890917982889405,0.32786605325885554 L -0.29914227415378475,0.9009688679024191 L 0.5178936684099766,0.7956237485998781 L 0.9449451155554427,0.09115771883486251 L 0.6604336173201055,-0.681951932491393 L -0.12139786514792433,-0.9415378693673405 L -0.8118142790944107,-0.49212658673728155" fill="none" stroke="#000000" stroke-width="0.0019498558243636473"/>
	<path d="M -0.7990307804706384,0.41685384636789063 L -0.17227808231635927,0.8846115417089131 L 0.5842035256545794,0.6862387033561874 L 0.900767963227454,-0.02888587534222592 L 0.5390357521721809,-0.7222588007434686 L -0.22860137459424087,-0.8717561177903176 L -0.8240970036729758,-0.36480329755697916 L -0.7990307804706384,0.41685384636789063" fill="none" stroke="#000000" stroke-width="0.0019498558243636473"/>
	<path d="M -0.05481638591415999,0.8538094576033528 L 0.6333576563910223,0.5751986658090347 L 0.8446004652920606,-0.13654845325398712 L 0.4198418971184599,-0.7454718019359244 L -0.321066182799294,-0.7930396789066181 L -0.8202048785126034,-0.24343250259927757 L -0.7017125715754853,0.48948431328341974 L -0.05481638591415999,0.8538094576033528" fill="none" stroke="#000000" stroke-width="0.0019498558243636473"/>
	<path d="M 0.6661581084110466,0.46468305890781253 L 0.7786466318434662,-0.2310982331315648 L 0.3047983600010592,-0.7528578420780181 L -0.39856929367561134,-0.7077001404384695 L -0.8018061398826238,-0.12962979859674056 L -0.601266608893455,0.546054425554331 L 0.052038942196118154,0.8105485297826494 L 0.6661581084110466,0.46468305890781253" fill="none" stroke="#000000" stroke-width="0.0019498558243636473"/>
	<path d="M 0.7050704585943237,-0.31211377684766917 L 0.19558386367391228,-0.7458460387713479 L -0.46118136977669744,-0.617941021013669 L -0.7706676253999372,-0.02471381073304396 L -0.4998254403423975,0.5871234030994292 L 0.14739549587386572,0.756844719263221 L 0.6836246173769303,0.35664652500307964 L 0.7050704585943237,-0.31211377684766917" fill="none" stroke="#000000" stroke-width="0.0019498558243636473"/>
	<path d="M 0.09360549745029001,-0.7259857537282415 L -0.5092364450298514,-0.5258284385830023 L -0.728612957872106,0.07028841576063485 L -0.39932905244091876,0.6134766594141272 L 0.23065777430645745,0.6947044658855092 L 0.6869545924399382,0.2528056401565395 L 0.6259605911461906,-0.3794609889055669 L 0.09360549745029001,-0.7259857537282415" fill="none" stroke="#000000" stroke-width="0.0019498558243636473"/>
	<path d="M -0.5432998473356482,-0.43326717043405305 L -0.6774838283303677,0.15463126282126216 L -0.30150866844074625,0.6260892012692421 L 0.30150866844074475,0.6260892012692428 L 0.6774838283303674,0.1546312628212638 L 0.5432998473356493,-0.4332671704340517 L 8.881784197001252e-16,-0.6949065873129059 L -0.5432998473356482,-0.43326717043405305" fill="none" stroke="#000000" stroke-width="0.0019498558243636473"/>
	<path d="M -0.6191047750653746,0.22783628016586213 L -0.2078759368532289,0.6260892012692423 L 0.3598877217057381,0.5528841839246431 L 0.6566485854486322,0.06334609930276441 L 0.4589396711586326,-0.4738928901190347 L -0.08436017617701577,-0.6542808676279235 L -0.5641350902173835,-0.3419820069155538 L -0.6191047750653746,0.22783628016586213" fill="none" stroke="#000000" stroke-width="0.0019498558243636473"/>
	<path d="M -0.11971717425127373,0.6147223875465491 L 0.4059668783087911,0.47687179543128233 L 0.6259495912871872,-0.020072985055611628 L 0.3745794949816162,-0.5019023983813555 L -0.15885660107432253,-0.6057890687828174 L -0.5726704364371786,-0.25350421454581556 L -0.5552517528148193,0.28967448378776856 L -0.11971717425127373,0.6147223875465491" fill="none" stroke="#000000" stroke-width="0.0019498558243636473"/>
	<path d="M 0.4401244075511849,0.3997093418842933 L 0.5869184269789984,-0.09488841965358344 L 0.2917508999375656,-0.5180332658212955 L -0.22311100539063836,-0.5510884968727209 L -0.5699657730245895,-0.16916284962230466 L -0.4876246883880841,0.34014587368698196 L -0.03809226766443696,0.593317816398629 L 0.4401244075511849,0.3997093418842933" fill="none" stroke="#000000" stroke-width="0.0019498558243636473"/>
	<path d="M 0.5410866736570318,-0.16059168451949743 L 0.21180638816690717,-0.523165873770194 L -0.2769684276758339,-0.4917854894329614 L -0.5571803683523684,-0.09008060095692091 L -0.4178241272513548,0.3794568173490689 L 0.03616220372887739,0.5632555126827541 L 0.46291765772674076,0.3229113186477506 L 0.5410866736570318,-0.16059168451949743" fill="none" stroke="#000000" stroke-width="0.0019498558243636473"/>
	<path d="M 0.13591251523911155,-0.5182933254634465 L -0.32047797180381565,-0.4294112860732617 L -0.5355420095192113,-0.017173789875997186 L -0.3473319910005063,0.4079959203793636 L 0.10242610102300101,0.5259363809889993 L 0.47505524986449343,0.24783601956689755 L 0.48995810619692726,-0.216889919522555 L 0.13591251523911155,-0.5182933254634465" fill="none" stroke="#000000" stroke-width="0.0019498558243636473"/>
	<path d="M -0.3538717601510499,-0.36540164576778833 L -0.5063179440268673,0.048843883123852905 L -0.27749638904661567,0.4263089717895927 L 0.16028560678049025,0.48275470957953426 L 0.4773692714713652,0.17567630465463585 L 0.43498413818576875,-0.2636899408187474 L 0.06504707678690855,-0.5044922825610798 L -0.3538717601510499,-0.36540164576778833" fill="none" stroke="#000000" stroke-width="0.0019498558243636473"/>
	<path d="M -0.4707879751047384,0.10745428313900787 L -0.2095203598314178,0.4350735102074718 L 0.20952035983141593,0.4350735102074727 L 0.4707879751047379,0.1074542831390099 L 0.37754264279963895,-0.30108021080104563 L 1.096345236817342e-15,-0.48289516509086927 L -0.37754264279963756,-0.3010802108010473 L -0.4707879751047384,0.10745428313900787" fill="none" stroke="#000000" stroke-width="0.0019498558243636473"/>
	<path d="M -0.1444543578631508,0.435073510207472 L 0.2500883485063508,0.3842028614303549 L 0.45630942757795595,0.04401962168606888 L 0.31892020066735294,-0.3293112910244678 L -0.05862244213228507,-0.4546640848674473 L -0.39202119032641997,-0.23764554934810644 L -0.4302199864298038,0.1583249319161258 L -0.1444543578631508,0.435073510207472" fill="none" stroke="#000000" stroke-width="0.0019498558243636473"/>
	<path d="M 0.2821090579676354,0.3313813519489308 L 0.4349764943112875,-0.013948849542177594 L 0.2602977585350669,-0.34877528282335 L -0.11039049852468472,-0.4209668144193309 L -0.397952458639552,-0.1761617485994717 L -0.3858481006480555,0.20129670696058555 L -0.08319225300169764,0.42717463647481385 L 0.2821090579676354,0.3313813519489308" fill="none" stroke="#000000" stroke-width="0.0019498558243636473"/>
	<path d="M 0.40785348112303477,-0.06593858787698612 L 0.2027396222210832,-0.3599847288664357 L -0.1550413073479595,-0.38295502666922165 L -0.39607297021767973,-0.11755237853116243 L -0.33885360809728293,0.23636960827238704 L -0.02647056772570404,0.4123004589855166 L 0.30584535004450814,0.2777606546859022 L 0.40785348112303477,-0.06593858787698612" fill="none" stroke="#000000" stroke-width="0.0019498558243636473"/>
	<path d="M 0.14718565437213846,-0.36355141194021984 L -0.19246718486963482,-0.34174497615186655 L -0.3871883082894922,-0.06259760299406995 L -0.29034873836523256,0.2636870419766578 L 0.025129353582947878,0.3914099661035539 L 0.32168452973777306,0.22439320244621902 L 0.37600469383150015,-0.11159621944027436 L 0.14718565437213846,-0.36355141194021984" fill="none" stroke="#000000" stroke-width="0.0019498558243636473"/>
	<path d="M -0.22270225369515098,-0.29840073135881645 L -0.3721516701976909,-0.011934179713958493 L -0.24136328853075908,0.28351905266841143 L 0.0711765723136602,0.3654766556567659 L 0.33011902246841474,0.17222288257044766 L 0.3404751155036012,-0.15071823379798918 L 0.09444650213792474,-0.3601654460248608 L -0.22270225369515098,-0.29840073135881645" fill="none" stroke="#000000" stroke-width="0.0019498558243636473"/>
	<path d="M -0.3518436745789973,0.03394193613270674 L -0.19283406870403846,0.2962449127271796 L 0.11138352400320858,0.3354694277431473 L 0.33172705132621444,0.12207862133929571 L 0.3022733430019182,-0.18323987688309765 L 0.04520164214467152,-0.35057501040021827 L -0.24590781719297697,-0.25392001065901343 L -0.3518436745789973,0.03394193613270674" fill="none" stroke="#000000" stroke-width="0.0019498558243636473"/>
	<path d="M -0.14559707822302292,0.30233544820852093 L 0.14559707822302104,0.3023354482085219 L 0.32715366512798677,0.07467068918828441 L 0.26235686947299286,-0.20922262179520473 L 1.0547118733938987e-15,-0.33556703120319836 L -0.2623568694729915,-0.20922262179520645 L -0.32715366512798727,0.07467068918828233 L -0.14559707822302292,0.30233544820852093" fill="none" stroke="#000000" stroke-width="0.0019498558243636473"/>
	<path d="M 0.17378804078726873,0.2669850992724214 L 0.31709242707690305,0.030589525080671615 L 0.22161974827089767,-0.22884058540942 L -0.040737121202094245,-0.31594906758898333 L -0.2724181075240756,-0.1651414576875937 L -0.29896270256373986,0.11002103812438292 L -0.10038228484515972,0.30233544820852104 L 0.17378804078726873,0.2669850992724214" fill="none" stroke="#000000" stroke-width="0.0019498558243636473"/>
	<path d="M 0.3022680312231885,-0.009693147432295574 L 0.18088262706880248,-0.24236624152586767 L -0.07671108460155882,-0.2925326123801228 L -0.2765397849459914,-0.12241595953433329 L -0.26812838684250706,0.13988240767130639 L -0.05781084462428185,0.2968464688193441 L 0.19603944272234808,0.23027908438196878 L 0.3022680312231885,-0.009693147432295574" fill="none" stroke="#000000" stroke-width="0.0019498558243636473"/>
	<path d="M 0.14088509899076093,-0.25015575942133644 L -0.10773922578170168,-0.26611797067703186 L -0.275233716060854,-0.08168792219560525 L -0.2354716044015479,0.16425479782905272 L -0.0183945718825044,0.2865103049011701 L 0.21253394844495013,0.19301770863757906 L 0.28342007069089686,-0.04582115907382828 L 0.14088509899076093,-0.25015575942133644" fill="none" stroke="#000000" stroke-width="0.0019498558243636473"/>
	<path d="M -0.1337467146074799,-0.23748083510902412 L -0.2690597059609083,-0.04349948667057754 L -0.20176525090799174,0.1832378624586341 L 0.01746255333970541,0.27199336378528083 L 0.22354069875143273,0.15593231452811623 L 0.2612881386040819,-0.077548948008263 L 0.1022802807811599,-0.2526342709841665 L -0.1337467146074799,-0.23748083510902412" fill="none" stroke="#000000" stroke-width="0.0019498558243636473"/>
	<path d="M -0.2586106470998754,-0.008293140097406046 L -0.16772493913553022,0.19701925732799366 L 0.04946106896311565,0.25397213552497727 L 0.22940188331059846,0.11967881558422135 L 0.23659840057957507,-0.10473509349438913 L 0.0656314964843066,-0.2502813409651666 L -0.15475726310219012,-0.20736063388023052 L -0.2586106470998754,-0.008293140097406046" fill="none" stroke="#000000" stroke-width="0.0019498558243636473"/>
	<path d="M -0.134001664600786,0.20586254131205386 L 0.07740114454795456,0.23311991518080405 L 0.23051931315647278,0.08483323813875471 L 0.21005173722112658,-0.12733459750447015 L 0.031410918883693156,-0.2436168840744021 L -0.17088296203913736,-0.1764506880575119 L -0.24449848716932365,0.02358647500477154 L -0.134001664600786,0.20586254131205386" fill="none" stroke="#000000" stroke-width="0.0019498558243636473"/>
	<path d="M 0.10117636875068951,0.21009489453830177 L 0.22734123696099842,0.05188915379613368 L 0.18231351682357508,-0.1453901781003643 L 1.0130785099704553e-15,-0.2331877404681379 L -0.18231351682357383,-0.14539017810036586 L -0.2273412369609989,0.051889153796131696 L -0.10117636875069133,0.21009489453830088 L 0.10117636875068951,0.21009489453830177" fill="none" stroke="#000000" stroke-width="0.0019498558243636473"/>
	<path d="M 0.22034961636277708,0.02125686248133231 L 0.15400502295207494,-0.15902283024554742 L -0.028308493871499276,-0.21955508832295506 L -0.18930513742179542,-0.11475788678556459 L -0.20775115137241185,0.07645434413563779 L -0.06975631098842222,0.21009489453830105 L 0.12076645433927671,0.18552970419879591 L 0.22034961636277708,0.02125686248133231" fill="none" stroke="#000000" stroke-width="0.0019498558243636473"/>
	<path d="M 0.12569652908057474,-0.16842189777859598 L -0.05330703800954058,-0.20328283934680025 L -0.19216931821306363,-0.08506765667263853 L -0.1863241822624413,0.09720520653997991 L -0.04017313674753657,0.2062805666031372 L 0.13622910012091055,0.16002245265741474 L 0.21004804603109678,-0.006735832002497069 L 0.12569652908057474,-0.16842189777859598" fill="none" stroke="#000000" stroke-width="0.0019498558243636473"/>
	<path d="M -0.07486869770769672,-0.1849271308258122 L -0.1912617223412973,-0.056765475237630446 L -0.1636307690237744,0.11414174100915811 L -0.01278250917195331,0.19909789820885215 L 0.14769124080201718,0.134129277200297 L 0.19695047409979372,-0.03184142527871554 L 0.09790198334291084,-0.17383488507614903 L -0.07486869770769672,-0.1849271308258122" fill="none" stroke="#000000" stroke-width="0.0019498558243636473"/>
	<path d="M -0.18697136205270865,-0.030228079832114507 L -0.14020800194680488,0.1273331976676409 L 0.01213484334706403,0.18900998019978724 L 0.15533990409490034,0.10835839254053611 L 0.18157084870270412,-0.053889274810127764 L 0.07107524086704185,-0.17555721908789093 L -0.09294147301219677,-0.165026996677831 L -0.18697136205270865,-0.030228079832114507" fill="none" stroke="#000000" stroke-width="0.0019498558243636473"/>
	<path d="M -0.11655316506193632,0.13690997974471916 L 0.03437082263800677,0.1764869099702328 L 0.15941287985452135,0.08316559731128206 L 0.16441378711044446,-0.07278110639208388 L 0.04560775924214868,-0.17392215251820162 L -0.10754184156422826,-0.14409627043275205 L -0.17971024221895665,-0.005762957683196512 L -0.11655316506193632,0.13690997974471916" fill="none" stroke="#000000" stroke-width="0.0019498558243636473"/>
	<path d="M 0.05378656521193187,0.1619965646929667 L 0.1601893892152795,0.05895117600570527 L 0.14596633587148045,-0.08848565059869369 L 0.021827654445829923,-0.16929097752394656 L -0.11874769598053767,-0.12261674546705985 L -0.16990360932200305,0.01639039685230676 L -0.09311863944198104,0.14305523603872133 L 0.05378656521193187,0.1619965646929667" fill="none" stroke="#000000" stroke-width="0.0019498558243636473"/>
	<path d="M 0.15798092313206205,0.036058114783025924 L 0.12669086379688474,-0.10103259249253964 L 8.604228440844963e-16,-0.16204369693192133 L -0.12669086379688366,-0.10103259249254098 L -0.1579809231320624,0.036058114783024245 L -0.0703081251252552,0.1459963261754755 L 0.07030812512525361,0.14599632617547625 L 0.15798092313206205,0.036058114783025924" fill="none" stroke="#000000" stroke-width="0.0019498558243636473"/>
	<path d="M 0.10701910492867225,-0.11050601227077281 L -0.01967175886821171,-0.15257027715368837 L -0.13154938700658048,-0.07974601147339766 L -0.14436764361052973,0.05312862736854239 L -0.0484741200125024,0.14599632617547562 L 0.08392140464678653,0.12892581358995828 L 0.15312239992236548,0.014771533763882572 L 0.10701910492867225,-0.11050601227077281" fill="none" stroke="#000000" stroke-width="0.0019498558243636473"/>
	<path d="M -0.03704341186296906,-0.14126258414976273 L -0.13353972510568785,-0.05911407498908934 L -0.12947790162986106,0.06754853834574348 L -0.02791657735888549,0.14334572456715866 L 0.09466649905773002,0.11120065646960521 L 0.14596377083921364,-0.004680774029568138 L 0.08734734606045978,-0.11703748621408712 L -0.03704341186296906,-0.14126258414976273" fill="none" stroke="#000000" stroke-width="0.0019498558243636473"/>
	<path d="M -0.13290903075577945,-0.039446702674577165 L -0.11370809928169752,0.07931784771462752 L -0.008882649825978122,0.1383544409854858 L 0.10263161612173828,0.09320731827800524 L 0.13686218182634655,-0.022126816175610985 L 0.06803273313598726,-0.12079900674419788 L -0.052026751220616965,-0.1285070813837325 L -0.13290903075577945,-0.039446702674577165" fill="none" stroke="#000000" stroke-width="0.0019498558243636473"/>
	<path d="M -0.09743146414681553,0.0884846778428599 L 0.008432582577884873,0.13134428030871406 L 0.10794672262810122,0.07529896076705629 L 0.1261747788275041,-0.03744801205107311 L 0.04939065307335893,-0.12199586799451037 L -0.0645856418307401,-0.11467834707588986 L -0.1299276311292935,-0.02100569179715691 L -0.09743146414681553,0.0884846778428599" fill="none" stroke="#000000" stroke-width="0.0019498558243636473"/>
	<path d="M 0.023884511062514352,0.12264191631281457 L 0.11077706031342767,0.05779232140942249 L 0.11425222370810963,-0.05057607026378043 L 0.03169313232995029,-0.12085964946453817 L -0.07473153411474298,-0.10013344753094137 L -0.12488183112555086,-0.004004717256458883 L -0.08099356217370808,0.09513964679348177 L 0.023884511062514352,0.12264191631281457" fill="none" stroke="#000000" stroke-width="0.0019498558243636473"/>
	<path d="M 0.11131666178332864,0.040965560536207195 L 0.10143296832301993,-0.06148926148370033 L 0.015168180859997136,-0.11764141545403155 L -0.08251855616510581,-0.08520718413992984 L -0.11806713732609833,0.011389794741340588 L -0.06470875594984807,0.09941002587291002 L 0.037376638474706514,0.1125724799272039 L 0.11131666178332864,0.040965560536207195" fill="none" stroke="#000000" stroke-width="0.0019498558243636473"/>
	<path d="M 0.0880383158048174,-0.07020821405636615 L 6.938893903907228e-16,-0.11260523243052825 L -0.08803831580481652,-0.07020821405636725 L -0.10978198415424403,0.025057021488808312 L -0.04885757929115994,0.10145380878282151 L 0.048857579291158665,0.10145380878282213 L 0.10978198415424373,0.025057021488809707 L 0.0880383158048174,-0.07020821405636615" fill="none" stroke="#000000" stroke-width="0.0019498558243636473"/>
	<path d="M -0.01367003482155131,-0.10602209062225382 L -0.09141453558784753,-0.05541602868479468 L -0.10032202653979909,0.03691943313329277 L -0.03368498531088436,0.1014538087828216 L 0.0583175369056038,0.0895913971383378 L 0.10640576437121296,0.010264836117237094 L 0.07436828098326549,-0.07679135586464077 L -0.01367003482155131,-0.10602209062225382" fill="none" stroke="#000000" stroke-width="0.0019498558243636473"/>
	<path d="M -0.09279763464389709,-0.04107876011282735 L -0.08997504675404293,0.04693992425981548 L -0.01939941350191993,0.09961188826485999 L 0.06578437379306754,0.07727406869424824 L 0.101431185865201,-0.0032527007068699973 L 0.06069824616171358,-0.08133012013271251 L -0.025741710920122146,-0.09816430026651383 L -0.09279763464389709,-0.04107876011282735" fill="none" stroke="#000000" stroke-width="0.0019498558243636473"/>
	<path d="M -0.07901650722168155,0.055118494868376514 L -0.006172611876866116,0.09614341242480876 L 0.07131938610956531,0.06477037945715651 L 0.09510643170514489,-0.015376070316693746 L 0.047276394409098615,-0.0839440255273992 L -0.036153732139696415,-0.08930041736991146 L -0.09235936098556471,-0.02741177353633739 L -0.07901650722168155,0.055118494868376514" fill="none" stroke="#000000" stroke-width="0.0019498558243636473"/>
	<path d="M 0.005859857181432157,0.09127200559239822 L 0.07501288863310661,0.05232574385484356 L 0.08767968495998163,-0.026022870256063715 L 0.03432189017236363,-0.08477573229434093 L -0.04488098795401319,-0.07969073880519163 L -0.09028756674570743,-0.014596993600909101 L -0.0677057662471634,0.0614885855092636 L 0.005859857181432157,0.09127200559239822" fill="none" stroke="#000000" stroke-width="0.0019498558243636473"/>
	<path d="M 0.07697970893495994,0.04016026484351245 L 0.0793946228699132,-0.03514564438670133 L 0.02202376642866216,-0.08398616655323629 L -0.051931435336333986,-0.06958339229960245 L -0.08678120708484319,-0.00278290440183903 L -0.05628295988444722,0.06611316727141363 L 0.016597504072089098,0.085224675526453 L 0.07697970893495994,0.04016026484351245" fill="none" stroke="#000000" stroke-width="0.0019498558243636473"/>
	<path d="M 0.07048643785836792,-0.042729292854029044 L 0.01054046879716563,-0.08174979453982081 L -0.057342688254681994,-0.059211033545221066 L -0.08204563147308323,0.007914843393899387 L -0.044966540766372694,0.06908068182403154 L 0.025973272287686495,0.0782273578515639 L 0.07735468155091786,0.028467237869576095 L 0.07048643785836792,-0.042729292854029044" fill="none" stroke="#000000" stroke-width="0.0019498558243636473"/>
	<path d="M 5.620504062164855e-16,-0.07825011778187496 L -0.061178405588700885,-0.04878815043124422 L -0.07628822395706528,0.017412289291013867 L -0.033951453689589746,0.07050092003116658 L 0.03395145368958872,0.07050092003116709 L 0.07628822395706503,0.017412289291014984 L 0.061178405588701606,-0.04878815043124333 L 5.620504062164855e-16,-0.07825011778187496" fill="none" stroke="#000000" stroke-width="0.0019498558243636473"/>
	<path d="M -0.06352456295614528,-0.03850896337578485 L -0.0697144370950866,0.025655557284183433 L -0.023407918186072095,0.07050092003116668 L 0.04052524055156752,0.06225765203799763 L 0.0739420665896208,0.007133102235555567 L 0.051679008342408385,-0.05336281903902837 L -0.009499397246292719,-0.07367544917409008 L -0.06352456295614528,-0.03850896337578485" fill="none" stroke="#000000" stroke-width="0.0019498558243636473"/>
	<path d="M -0.06252425268317116,0.03261886257611461 L -0.013480780232491153,0.06922095732992836 L 0.04571399469105708,0.05369825936410315 L 0.0704851992166879,-0.0022603231477612423 L 0.04217961109611512,-0.05651683622717188 L -0.01788808448709739,-0.06821501889416254 L -0.06448568760110039,-0.028545901001050453 L -0.06252425268317116,0.03261886257611461" fill="none" stroke="#000000" stroke-width="0.0019498558243636473"/>
	<path d="M -0.004289388654160203,0.0668106906207411 L 0.049560311210649466,0.045009363347534644 L 0.06609008588773022,-0.010684932550056873 L 0.032852677899285726,-0.05833325630455242 L -0.025123466619821316,-0.06205544828014334 L -0.06418112834887951,-0.019048622000330508 L -0.05490909137480436,0.038302205166807386 L -0.004289388654160203,0.0668106906207411" fill="none" stroke="#000000" stroke-width="0.0019498558243636473"/>
	<path d="M 0.052126950444515166,0.03636150409077864 L 0.06092919065221158,-0.018083463961727712 L 0.023850507569805626,-0.05891121481561296 L -0.031188094174354905,-0.05537761934355991 L -0.06274142488404574,-0.010143547008236123 L -0.0470491829642217,0.04272882311494014 L 0.0040720533560899795,0.06342551792341791 L 0.052126950444515166,0.03636150409077864" fill="none" stroke="#000000" stroke-width="0.0019498558243636473"/>
	<path d="M 0.0551718464295266,-0.024422939799675566 L 0.015304460368718222,-0.058362540381002755 L -0.03608749650383267,-0.04835395767657192 L -0.06030483245822296,-0.0019338586007000766 L -0.03911139957717044,0.045942475445025326 L 0.011533714912647448,0.05922318842493722 L 0.053493706828333806,0.027907632587987775 L 0.0551718464295266,-0.024422939799675566" fill="none" stroke="#000000" stroke-width="0.0019498558243636473"/>
	<path d="M 0.007324641200516589,-0.056808470737198115 L -0.039847811802408886,-0.04114613725217962 L -0.05701404977089263,0.0055000768119706726 L -0.031247545387226752,0.048004620855586426 L 0.01804899800678505,0.05436070627913575 L 0.05375427776922493,0.019782071118171894 L 0.0489814899840017,-0.02969286707548701 L 0.007324641200516589,-0.056808470737198115" fill="none" stroke="#000000" stroke-width="0.0019498558243636473"/>
	<path d="M -0.04251327704488893,-0.033903207117484645 L -0.053013189362166924,0.012099914528523461 L -0.023593088817745023,0.04899155374127805 L 0.023593088817744225,0.04899155374127844 L 0.05301318936216672,0.012099914528524325 L 0.04251327704488948,-0.03390320711748395 L 4.475586568020162e-16,-0.054376522304635674 L -0.04251327704488893,-0.033903207117484645" fill="none" stroke="#000000" stroke-width="0.0019498558243636473"/>
	<path d="M -0.0484450215681869,0.017828215757962642 L -0.016266316542783103,0.048991553741278115 L 0.028161256611724347,0.04326325251183934 L 0.051382829152657024,0.0049568397314640154 L 0.03591208332293823,-0.037082174467807344 L -0.006601193721950853,-0.0511975549543124 L -0.04414363725439874,-0.026760132320424367 L -0.0484450215681869,0.017828215757962642" fill="none" stroke="#000000" stroke-width="0.0019498558243636473"/>
	<path d="M -0.00936788298567575,0.0481020992286728 L 0.03176695604320275,0.03731527415935225 L 0.048980629243738916,-0.001570713444835092 L 0.029310889600986982,-0.039273921788346405 L -0.012430547744493741,-0.0474030659832279 L -0.044811529101406844,-0.01983673464641208 L -0.043448515056352305,0.022667062474796426 L -0.00936788298567575,0.0481020992286728" fill="none" stroke="#000000" stroke-width="0.0019498558243636473"/>
	<path d="M 0.034439786729557956,0.03127730308096192 L 0.045926436039459465,-0.007425030014028573 L 0.022829542283082805,-0.040536164065445565 L -0.017458462450249703,-0.04312273978852697 L -0.04459988887081147,-0.013237012907263245 L -0.03815668929971785,0.02661645467902485 L -0.0029807244313212085,0.04642718901527758 L 0.034439786729557956,0.03127730308096192" fill="none" stroke="#000000" stroke-width="0.0019498558243636473"/>
	<path d="M 0.04234009594386577,-0.012566318228440093 L 0.016573874821014294,-0.0409377912419751 L -0.021672812087494463,-0.03848227247154641 L -0.04359942944932126,-0.007048817634741439 L -0.03269478716952784,0.029692540650699838 L 0.002829696701036515,0.044074810208715905 L 0.03622336124042697,0.02526784871728729 L 0.04234009594386577,-0.012566318228440093" fill="none" stroke="#000000" stroke-width="0.0019498558243636473"/>
	<path d="M 0.010635170325491633,-0.04055651376307428 L -0.02507743904014476,-0.033601483712099305 L -0.041906225322020284,-0.001343851080558239 L -0.027178769205202978,0.03192572882420951 L 0.008014854468987774,0.04115458375816232 L 0.037173129254794525,0.01939319772170106 L 0.03833927951809408,-0.016971661748341055 L 0.010635170325491633,-0.04055651376307428" fill="none" stroke="#000000" stroke-width="0.0019498558243636473"/>
	<path d="M -0.027690506911498873,-0.02859272181902059 L -0.039619438755179176,0.0038220396073653552 L -0.02171412512694291,0.0333587272540055 L 0.012542367609312407,0.03777561288435349 L 0.03735420171808209,0.013746691530710065 L 0.03403756004628393,-0.0206337689269624 L 0.005089941419942533,-0.039476580530451416 L -0.027690506911498873,-0.02859272181902059" fill="none" stroke="#000000" stroke-width="0.0019498558243636473"/>
	<path d="M -0.036839214502236275,0.008408310311794058 L -0.01639499283450951,0.03404455341750835 L 0.016394992834508897,0.03404455341750865 L 0.03683921450223612,0.008408310311794724 L 0.029542756266752273,-0.023559561956973372 L 3.452099717193846e-16,-0.037786603544658494 L -0.029542756266751846,-0.023559561956973913 L -0.036839214502236275,0.008408310311794058" fill="none" stroke="#000000" stroke-width="0.0019498558243636473"/>
	<path d="M -0.01130357051689691,0.0340445534175084 L 0.01956944272649635,0.03006391915905881 L 0.03570626645295499,0.003444540581648719 L 0.02495554326523976,-0.025768647309565754 L -0.004587213001512212,-0.0355775181920662 L -0.030675704316033073,-0.01859579222682793 L -0.0336647646102489,0.012388944570243953 L -0.01130357051689691,0.0340445534175084" fill="none" stroke="#000000" stroke-width="0.0019498558243636473"/>
	<path d="M 0.022075067013301093,0.02593062982072096 L 0.03403696191220534,-0.0010914991195968178 L 0.020368330263727235,-0.027291706960333763 L -0.00863806951155625,-0.032940702810573416 L -0.031139826760131585,-0.013784677576569933 L -0.03019265932162321,0.015751491028769188 L -0.006509803595922615,0.03342646561758378 L 0.022075067013301093,0.02593062982072096" fill="none" stroke="#000000" stroke-width="0.0019498558243636473"/>
	<path d="M 0.03191458293562524,-0.005159702267744462 L 0.015864399317852794,-0.028168847433474822 L -0.01213200056103351,-0.029966275942027762 L -0.030992756569750445,-0.009198487465603224 L -0.026515334744425825,0.018495949687369763 L -0.0020713250422896594,0.032262559477137784 L 0.023932434664021403,0.02173480394434272 L 0.03191458293562524,-0.005159702267744462" fill="none" stroke="#000000" stroke-width="0.0019498558243636473"/>
	<path d="M 0.011517294790422374,-0.028447940804089078 L -0.015060579885194648,-0.026741584635247725 L -0.030297530727417653,-0.004898269807149233 L -0.0227198229748984,0.020633542092227532 L 0.001966374877647843,0.030627875948602803 L 0.02517185234058769,0.01755879452086893 L 0.02942241157885279,-0.008732417315213233 L 0.011517294790422374,-0.028447940804089078" fill="none" stroke="#000000" stroke-width="0.0019498558243636473"/>
	<path d="M -0.017426477581934406,-0.023349892375025143 L -0.0291209120256908,-0.0009338509682475168 L -0.018886705755752728,0.022185399264708684 L 0.005569575166853857,0.028598591351667736 L 0.025831852390190792,0.013476460845871733 L 0.02664221788995437,-0.011793719546568642 L 0.007390449916378914,-0.028182988572406843 L -0.017426477581934406,-0.023349892375025143" fill="none" stroke="#000000" stroke-width="0.0019498558243636473"/>
	<path d="M -0.027531808976614253,0.0026559605001289874 L -0.015089288588449348,0.023181199313182976 L 0.008715773872211188,0.026250522233119543 L 0.025957680837710304,0.00955266649844899 L 0.0236529246922213,-0.014338541948438496 L 0.003537033821754904,-0.027432535855199107 L -0.01924231565883409,-0.019869270741242888 L -0.027531808976614253,0.0026559605001289874" fill="none" stroke="#000000" stroke-width="0.0019498558243636473"/>
	<path d="M -0.011392988519648576,0.023657784431952645 L 0.011392988519648095,0.023657784431952877 L 0.025599812829037012,0.005842990223837216 L 0.020529455937145807,-0.01637169479810731 L 2.688821387764051e-16,-0.02625815971536439 L -0.02052945593714547,-0.016371694798107732 L -0.02559981282903713,0.00584299022383669 L -0.011392988519648576,0.023657784431952645" fill="none" stroke="#000000" stroke-width="0.0019498558243636473"/>
	<path d="M 0.01359893466068492,0.020891615464072658 L 0.02481251976650825,0.0023936339404543507 L 0.017341771404987355,-0.01790680276156021 L -0.003187684532158213,-0.02472305175191155 L -0.0213167489996743,-0.012922338514724881 L -0.023393866688000364,0.008609159191716953 L -0.007854925612347642,0.023657784431952676 L 0.01359893466068492,0.020891615464072658" fill="none" stroke="#000000" stroke-width="0.0019498558243636473"/>
	<path d="M 0.023652509044909967,-0.0007584899282540372 L 0.014154086872828896,-0.018965186945749397 L -0.006002651405247188,-0.022890711373784227 L -0.02163927074339813,-0.009579063251942976 L -0.020981077851090393,0.010945814875891824 L -0.004523705400919895,0.02322827114824732 L 0.015340109482916737,0.01801936547559149 L 0.023652509044909967,-0.0007584899282540372" fill="none" stroke="#000000" stroke-width="0.0019498558243636473"/>
	<path d="M 0.011024275589738298,-0.01957471763853388 L -0.008430607107146031,-0.020823762549351352 L -0.021537070699304914,-0.006392089533162902 L -0.018425680778708285,0.012852957276361305 L -0.0014393774163532925,0.022419465104237462 L 0.016630806498464185,0.015103658434878306 L 0.02217765391331004,-0.0035855110944289347 L 0.011024275589738298,-0.01957471763853388" fill="none" stroke="#000000" stroke-width="0.0019498558243636473"/>
	<path d="M -0.010465696170973988,-0.018582903318219244 L -0.021053953681797702,-0.0034038399554239436 L -0.015788154647840016,0.014338384319487016 L 0.0013664468556040706,0.021283512752086606 L 0.01749208600634216,0.012201721977825597 L 0.02044582762077633,-0.006068214315506932 L 0.008003444017889147,-0.019768661460249096 L -0.010465696170973988,-0.018582903318219244" fill="none" stroke="#000000" stroke-width="0.0019498558243636473"/>
	<path d="M -0.020236313595212153,-0.000648939189403756 L -0.013124496242313162,0.01541678009121295 L 0.0038703344719811005,0.019873349518143815 L 0.017950724388438203,0.009364881415460742 L 0.018513852712355047,-0.008195533401831507 L 0.005135672330097843,-0.01958454440912986 L -0.012109774065346877,-0.016225994024452378 L -0.020236313595212153,-0.000648939189403756" fill="none" stroke="#000000" stroke-width="0.0019498558243636473"/>
	<path d="M -0.010485646037978923,0.016108768104544247 L 0.00605664867732925,0.018241660820198666 L 0.018038163405490873,0.00663821087617553 L 0.016436573177840676,-0.00996394725243232 L 0.0024579081022860416,-0.01906304987247533 L -0.013371611906478075,-0.01380728712319328 L -0.01913203541848984,0.0018456444471824894 L -0.010485646037978923,0.016108768104544247" fill="none" stroke="#000000" stroke-width="0.0019498558243636473"/>
	<path d="M 0.007917062771483758,0.016439950242992774 L 0.017789478568875253,0.004060332396149409 L 0.014266054164672677,-0.011376798560681191 L 2.0556473190325164e-16,-0.01824696815692109 L -0.014266054164672422,-0.011376798560681509 L -0.017789478568875344,0.004060332396149009 L -0.007917062771484126,0.016439950242992597 L 0.007917062771483758,0.016439950242992774" fill="none" stroke="#000000" stroke-width="0.0019498558243636473"/>
	<path d="M 0.017242383433578264,0.0016633519928374915 L 0.01205091118500031,-0.012443555196721114 L -0.002215142979672186,-0.017180211520881217 L -0.01481314929996946,-0.008979818157369607 L -0.016256552064211408,0.005982561433549548 L -0.005458439550873253,0.016439950242992624 L 0.00944998927614773,0.01451772120559227 L 0.017242383433578264,0.0016633519928374915" fill="none" stroke="#000000" stroke-width="0.0019498558243636473"/>
	<path d="M 0.00983576820532794,-0.01317903333822198 L -0.0041712820028493285,-0.015906906121921124 L -0.015037271784234798,-0.006656554154062173 L -0.01457988920764763,0.0076063188607648135 L -0.003143552682162218,0.016141478632807377 L 0.010659943129780006,0.012521775768187292 L 0.016436284341786025,-0.0005270796475542053 L 0.00983576820532794,-0.01317903333822198" fill="none" stroke="#000000" stroke-width="0.0019498558243636473"/>
	<path d="M -0.0058584844138027635,-0.014470569768184054 L -0.014966252300370755,-0.0044419051232887944 L -0.012804126948849193,0.008931604677794806 L -0.0010002328482533523,0.015579433984966437 L 0.011556856988109036,0.01049563173892108 L 0.015411397795504997,-0.0024915952784021565 L 0.007660841727662031,-0.013602600231807314 L -0.0058584844138027635,-0.014470569768184054" fill="none" stroke="#000000" stroke-width="0.0019498558243636473"/>
	<path d="M -0.014630531102462029,-0.0023653508071829824 L -0.010971292666298912,0.009963837715035593 L 0.0009495529211722598,0.01479005321258322 L 0.012155365791651057,0.00847905697895168 L 0.014207940296741632,-0.004216842101072228 L 0.005561645969221256,-0.01373737307108586 L -0.007272681210025264,-0.012913381927229422 L -0.014630531102462029,-0.0023653508071829824" fill="none" stroke="#000000" stroke-width="0.0019498558243636473"/>
	<path d="M -0.00912029889394691,0.010713222040538331 L 0.002689520919683869,0.013810121492129908 L 0.012474076624564139,0.006507717785007895 L 0.012865398206356439,-0.0056951301474756485 L 0.003568812532465628,-0.01360942891942648 L -0.008415161768880523,-0.01127555013329182 L -0.014062347620242641,-0.0004509521174821873 L -0.00912029889394691,0.010713222040538331" fill="none" stroke="#000000" stroke-width="0.0019498558243636473"/>
	<path d="M 0.004208805062916081,0.012676250267483806 L 0.012534838573502205,0.004612936465826568 L 0.01142188297413212,-0.006924012581353539 L 0.0017080165312883507,-0.01324703893065756 L -0.00929202119680329,-0.009594774774827685 L -0.013294977441012422,0.0012825504841845843 L -0.007286544504023043,0.011194089069343823 L 0.004208805062916081,0.012676250267483806" fill="none" stroke="#000000" stroke-width="0.0019498558243636473"/>
	<path d="M 0.012362025842373177,0.0028215517287642324 L 0.009913575013993769,-0.007905812262349337 L 1.5525775109992423e-16,-0.012679938370733302 L -0.009913575013993573,-0.00790581226234958 L -0.012362025842373246,0.0028215517287639297 L -0.005501619072074105,0.01142422971895196 L 0.005501619072073821,0.011424229718952095 L 0.012362025842373177,0.0028215517287642324" fill="none" stroke="#000000" stroke-width="0.0019498558243636473"/>
	<path d="M 0.008374257565579503,-0.008647108475793239 L -0.001539317448414128,-0.01193864215728944 L -0.010293755027398335,-0.006240134790428192 L -0.011296785116415731,0.004157321349177711 L -0.003793105600351135,0.01142422971895198 L 0.006566859798031369,0.010088460098538341 L 0.011981845828968458,0.0011558742568428372 L 0.008374257565579503,-0.008647108475793239" fill="none" stroke="#000000" stroke-width="0.0019498558243636473"/>
	<path d="M -0.00289865134131976,-0.011053813847890982 L -0.010449499218079254,-0.004625683330462903 L -0.010131661052686688,0.005285681081547858 L -0.0021844754663996905,0.011216819830908362 L 0.007407664701265073,0.00870146446616848 L 0.011421682260055082,-0.00036627111912397115 L 0.006834940117165236,-0.009158197081146843 L -0.00289865134131976,-0.011053813847890982" fill="none" stroke="#000000" stroke-width="0.0019498558243636473"/>
	<path d="M -0.010400147310914569,-0.003086709130392337 L -0.00889767216154601,0.006206630925874368 L -0.0006950683950980125,0.010826251302759734 L 0.008030936049670152,0.0072934836333866755 L 0.01070948184779602,-0.0017314259718793847 L 0.005323569380913937,-0.009452536505666962 L -0.004071099410821518,-0.010055694254082093 L -0.010400147310914569,-0.003086709130392337" fill="none" stroke="#000000" stroke-width="0.0019498558243636473"/>
	<path d="M -0.007624023545148895,0.006923936463095001 L 0.000659850579924807,0.010277705404132488 L 0.008446843759816271,0.005892152548874999 L 0.009873191304354248,-0.002930311353693478 L 0.0038648244203141296,-0.009546191039472487 L -0.0050538340802733445,-0.008973594165719159 L -0.010166852438987215,-0.0016436978572173643 L -0.007624023545148895,0.006923936463095001" fill="none" stroke="#000000" stroke-width="0.0019498558243636473"/>
	<path d="M 0.001868965803804177,0.009596744396472612 L 0.008668318017055556,0.004522255957175349 L 0.00894024996200074,-0.003957583455085142 L 0.0024799913376952277,-0.009457281805676222 L -0.005847751346498794,-0.007835454063201406 L -0.00977201799439058,-0.0003133695970010842 L -0.006337755779666327,0.007444688567315892 L 0.001868965803804177,0.009596744396472612" fill="none" stroke="#000000" stroke-width="0.0019498558243636473"/>
	<path d="M 0.00871054189563059,0.003205559936958806 L 0.007937141718241541,-0.004811541953420006 L 0.0011869119388316232,-0.009205454615304453 L -0.006457086739109753,-0.006667472194811469 L -0.009238767401936014,0.0008912527800212164 L -0.005063467774594273,0.0077788462332544165 L 0.0029247263629362838,0.008808809813301486 L 0.00871054189563059,0.003205559936958806" fill="none" stroke="#000000" stroke-width="0.0019498558243636473"/>
</svg>
